PathFileType	4	(X/Y/Z)	C:\Users\WrightLab\Desktop\Jo\P2_Trial15.trc
DataRate	CameraRate	NumFrames	NumMarkers	Units	OrigDataRate	OrigDataStartFrame	OrigNumFrames
100.00	100.00	       8	19	mm	100.00	276	       440
Frame#	Time	Headset_Front			Headset_Back			Headset_Left			Headset_Right			Left_Shoulder			Right_Shoulder			Sternum			C7			Left Elbow			Right Elbow			Left Wrist			Right Wrist			Left ASIS			Right ASIS			S2			Left Knee			Right Knee			Left Ankle			Right Ankle			
		X1	Y1	Z1	X2	Y2	Z2	X3	Y3	Z3	X4	Y4	Z4	X5	Y5	Z5	X6	Y6	Z6	X7	Y7	Z7	X8	Y8	Z8	X9	Y9	Z9	X10	Y10	Z10	X11	Y11	Z11	X12	Y12	Z12	X13	Y13	Z13	X14	Y14	Z14	X15	Y15	Z15	X16	Y16	Z16	X17	Y17	Z17	X18	Y18	Z18	X19	Y19	Z19	

276	2.750	124.82092	1486.37244	1477.63965	119.83270	1721.15686	1279.36426	234.70024	1616.17749	1356.80273	15.74339	1566.84473	1409.05603	274.31229	1482.73608	1231.06323	-51.87904	1464.43433	1258.97815	122.77923	1359.69238	1316.02441	90.28196	1462.01294	1137.00977	420.01880	1146.37036	1260.48865	-105.04993	1136.67053	1282.89905	467.21997	912.69580	1292.64966	-49.15450	938.29388	1419.44556	192.97285	1082.90430	1360.22961	65.69306	1055.60486	1355.57227	160.89967	977.12238	1100.70593	420.66064	517.83075	1384.61584	19.94424	561.25293	1293.05896	437.63858	329.03769	1127.75574	142.36317	141.58461	1312.78088	
277	2.760	120.94798	1487.72668	1489.11719	118.62758	1722.13940	1289.79700	232.47574	1616.50391	1366.69238	13.50790	1568.20898	1418.23901	274.48907	1483.99890	1245.32788	-51.56145	1465.25403	1266.73962	121.74860	1360.47095	1326.04907	91.91767	1463.23853	1146.97668	420.50189	1147.85498	1272.02332	-104.36497	1139.25757	1293.92749	467.34622	913.05255	1299.49561	-42.38480	949.58917	1436.43933	191.75581	1083.80676	1371.83521	64.17399	1056.18591	1364.08936	164.86356	978.55615	1111.90222	422.62854	526.85278	1414.09814	22.36916	559.90240	1291.73340	448.74942	327.53723	1159.90906	142.45020	139.55119	1314.34973	
278	2.770	117.89520	1488.96667	1500.44275	118.41936	1722.60681	1300.17920	230.29343	1616.89526	1379.26404	11.15704	1569.52026	1428.14856	274.35608	1485.81372	1258.26990	-52.11729	1466.57153	1274.71924	120.24489	1361.37537	1336.22314	93.46183	1464.43225	1157.57629	421.47235	1148.70752	1284.25537	-103.79794	1141.41724	1304.63293	468.65277	913.42664	1306.83582	-35.61498	961.50500	1453.72302	189.14172	1085.30957	1383.12439	62.36813	1056.98584	1372.50708	169.31839	979.82056	1122.86206	422.30780	535.16913	1441.65601	24.17926	558.64661	1291.10156	457.76645	323.58017	1192.35986	141.50545	137.19852	1315.69812	
279	2.780	115.22628	1490.52795	1512.00024	118.14448	1723.11523	1310.68945				8.84443	1570.97791	1438.52002	274.39902	1486.85913	1272.94556	-52.48162	1467.37292	1282.75854	118.87206	1362.39465	1346.83557	95.11080	1465.28381	1167.77710	421.76453	1150.00403	1295.45850	-103.77689	1143.56738	1314.79102	470.25656	915.32324	1316.28613	-28.59366	972.25800	1468.66394	186.99458	1086.61096	1393.54688	60.49228	1057.09473	1380.90686	173.45906	980.93915	1132.88391	419.29919	541.24176	1466.42151	26.33154	557.02380	1289.75208	467.08871	321.29120	1226.22852	140.91226	135.25993	1317.06213	
280	2.790	111.50124	1491.84900	1523.71509							7.15448	1572.05981	1448.20007	273.03943	1487.52380	1286.61206	-53.38911	1467.95593	1290.74292	116.94047	1362.97278	1357.38794	96.64639	1466.16199	1178.61755	421.45978	1150.63892	1306.97839	-104.04959	1145.45422	1324.38489	471.58173	915.28223	1323.25830	-22.52616	983.31085	1483.91650	183.98717	1087.23877	1404.37500	58.68903	1057.15637	1389.51733	178.26749	981.81525	1143.89221	415.46640	548.28326	1490.58484	27.54565	555.36694	1288.19006	475.67465	319.63126	1260.07410	139.42078	132.56816	1317.84509	
281	2.800	108.88720	1492.39893	1533.96594	226.33795	1618.73633	1416.46716				4.96759	1572.93445	1458.10132	273.05627	1488.06128	1300.22607	-54.17559	1468.26697	1298.95361	114.82181	1363.44849	1368.19543	97.44330	1466.96521	1189.50671	421.26889	1151.71899	1317.49731	-103.83569	1146.05457	1333.70618	472.36911	915.69086	1330.84753	-17.69255	993.83618	1498.21155	181.37640	1087.41821	1414.92981	56.19566	1057.86340	1398.66235	182.54591	982.68518	1154.58557	410.95981	554.03192	1512.70483	29.14261	553.99274	1286.71118	482.35861	316.11734	1294.56274	137.15100	131.65753	1318.70911	
282	2.810	105.85278	1493.08325	1546.16113	224.54688	1617.96130	1427.18494				2.75822	1573.91284	1468.35156	271.88113	1488.91101	1314.60071	-55.07933	1468.41931	1307.20764	112.20050	1362.59155	1377.28589	99.03806	1467.54907	1199.76709	421.67395	1152.25867	1329.64319	-102.94473	1146.77649	1343.41687	473.90552	917.34283	1340.39746	-12.54687	1004.36353	1511.20471	179.44720	1088.23474	1426.34705	54.99494	1056.58313	1404.31299	187.75922	984.45087	1166.89795	406.74115	559.52942	1534.49487	30.70723	552.80823	1284.87170	488.00436	312.33759	1329.69104	136.16646	130.74803	1319.48877	
283	2.820	102.93031	1493.15149	1556.83691	222.80229	1617.46167	1439.02026				0.62807	1574.20178	1479.15601	271.08331	1488.76709	1327.10315	-55.87887	1468.27295	1315.45190	110.47178	1362.29785	1388.25366	99.88481	1467.37573	1210.94226	421.12396	1152.50854	1340.06946	-102.89302	1147.95789	1353.40894	474.49316	917.68396	1348.60205	-7.53755	1013.78766	1523.30957	176.60858	1087.83740	1436.87183	52.97962	1055.17578	1411.45166	191.71030	985.25964	1177.77051	400.91467	564.20532	1554.39380	30.86094	552.29871	1283.42578	492.02612	308.24515	1364.88135	135.06456	130.52412	1319.41357	
